<mxfile host="Electron" agent="Mozilla/5.0 (Macintosh; Intel Mac OS X 10_15_7) AppleWebKit/537.36 (KHTML, like Gecko) draw.io/28.1.2 Chrome/138.0.7204.243 Electron/37.4.0 Safari/537.36" version="28.1.2">
  <diagram name="Page-1" id="joAhnmZB9FQfuVbwyIFh">
    <mxGraphModel dx="1558" dy="1247" grid="1" gridSize="10" guides="1" tooltips="1" connect="1" arrows="1" fold="1" page="1" pageScale="1" pageWidth="827" pageHeight="1169" math="0" shadow="0">
      <root>
        <mxCell id="0" />
        <mxCell id="1" parent="0" />
        <mxCell id="72epLjfGmpezKTDvvbOs-48" value="" style="rounded=1;whiteSpace=wrap;html=1;" vertex="1" parent="1">
          <mxGeometry x="955.5" y="353" width="304.5" height="170" as="geometry" />
        </mxCell>
        <mxCell id="72epLjfGmpezKTDvvbOs-33" value="" style="rounded=1;whiteSpace=wrap;html=1;" vertex="1" parent="1">
          <mxGeometry x="920" y="663" width="460" height="159" as="geometry" />
        </mxCell>
        <mxCell id="72epLjfGmpezKTDvvbOs-45" value="" style="rounded=1;whiteSpace=wrap;html=1;" vertex="1" parent="1">
          <mxGeometry x="368" y="423" width="532" height="390" as="geometry" />
        </mxCell>
        <mxCell id="72epLjfGmpezKTDvvbOs-1" value="" style="verticalLabelPosition=bottom;html=1;verticalAlign=top;align=center;strokeColor=none;fillColor=#00BEF2;shape=mxgraph.azure.user;" vertex="1" parent="1">
          <mxGeometry x="260" y="533" width="47.5" height="50" as="geometry" />
        </mxCell>
        <mxCell id="72epLjfGmpezKTDvvbOs-2" value="" style="sketch=0;points=[[0,0,0],[0.25,0,0],[0.5,0,0],[0.75,0,0],[1,0,0],[0,1,0],[0.25,1,0],[0.5,1,0],[0.75,1,0],[1,1,0],[0,0.25,0],[0,0.5,0],[0,0.75,0],[1,0.25,0],[1,0.5,0],[1,0.75,0]];points=[[0,0,0],[0.25,0,0],[0.5,0,0],[0.75,0,0],[1,0,0],[0,1,0],[0.25,1,0],[0.5,1,0],[0.75,1,0],[1,1,0],[0,0.25,0],[0,0.5,0],[0,0.75,0],[1,0.25,0],[1,0.5,0],[1,0.75,0]];outlineConnect=0;fontColor=#232F3E;fillColor=#E7157B;strokeColor=#ffffff;dashed=0;verticalLabelPosition=bottom;verticalAlign=top;align=center;html=1;fontSize=12;fontStyle=0;aspect=fixed;shape=mxgraph.aws4.resourceIcon;resIcon=mxgraph.aws4.chatbot;" vertex="1" parent="1">
          <mxGeometry x="410" y="526" width="78" height="78" as="geometry" />
        </mxCell>
        <mxCell id="72epLjfGmpezKTDvvbOs-42" style="edgeStyle=orthogonalEdgeStyle;rounded=0;orthogonalLoop=1;jettySize=auto;html=1;" edge="1" parent="1" source="72epLjfGmpezKTDvvbOs-3">
          <mxGeometry relative="1" as="geometry">
            <mxPoint x="690" y="713" as="targetPoint" />
          </mxGeometry>
        </mxCell>
        <mxCell id="72epLjfGmpezKTDvvbOs-50" style="edgeStyle=orthogonalEdgeStyle;rounded=0;orthogonalLoop=1;jettySize=auto;html=1;startArrow=classic;startFill=1;" edge="1" parent="1" source="72epLjfGmpezKTDvvbOs-3" target="72epLjfGmpezKTDvvbOs-47">
          <mxGeometry relative="1" as="geometry">
            <Array as="points">
              <mxPoint x="1285" y="573" />
            </Array>
          </mxGeometry>
        </mxCell>
        <mxCell id="72epLjfGmpezKTDvvbOs-52" value="Access to local or self hosted models" style="edgeLabel;html=1;align=center;verticalAlign=middle;resizable=0;points=[];" vertex="1" connectable="0" parent="72epLjfGmpezKTDvvbOs-50">
          <mxGeometry x="0.2979" y="5" relative="1" as="geometry">
            <mxPoint x="69" y="-5" as="offset" />
          </mxGeometry>
        </mxCell>
        <mxCell id="72epLjfGmpezKTDvvbOs-3" value="" style="points=[];aspect=fixed;html=1;align=center;shadow=0;dashed=0;fillColor=#FF6A00;strokeColor=none;shape=mxgraph.alibaba_cloud.realtime_compute;" vertex="1" parent="1">
          <mxGeometry x="660" y="533" width="60" height="60" as="geometry" />
        </mxCell>
        <mxCell id="72epLjfGmpezKTDvvbOs-5" style="edgeStyle=orthogonalEdgeStyle;rounded=0;orthogonalLoop=1;jettySize=auto;html=1;exitX=0.87;exitY=0.65;exitDx=0;exitDy=0;exitPerimeter=0;entryX=0;entryY=0.5;entryDx=0;entryDy=0;entryPerimeter=0;" edge="1" parent="1" source="72epLjfGmpezKTDvvbOs-1" target="72epLjfGmpezKTDvvbOs-2">
          <mxGeometry relative="1" as="geometry" />
        </mxCell>
        <mxCell id="72epLjfGmpezKTDvvbOs-18" value="User write prompts" style="edgeLabel;html=1;align=center;verticalAlign=middle;resizable=0;points=[];" vertex="1" connectable="0" parent="72epLjfGmpezKTDvvbOs-5">
          <mxGeometry x="-0.5113" y="1" relative="1" as="geometry">
            <mxPoint x="22" y="-21" as="offset" />
          </mxGeometry>
        </mxCell>
        <mxCell id="72epLjfGmpezKTDvvbOs-6" style="edgeStyle=orthogonalEdgeStyle;rounded=0;orthogonalLoop=1;jettySize=auto;html=1;exitX=1;exitY=0.5;exitDx=0;exitDy=0;exitPerimeter=0;entryX=0;entryY=0.533;entryDx=0;entryDy=0;entryPerimeter=0;startArrow=classic;startFill=1;" edge="1" parent="1" source="72epLjfGmpezKTDvvbOs-2" target="72epLjfGmpezKTDvvbOs-3">
          <mxGeometry relative="1" as="geometry" />
        </mxCell>
        <mxCell id="72epLjfGmpezKTDvvbOs-23" style="edgeStyle=orthogonalEdgeStyle;rounded=0;orthogonalLoop=1;jettySize=auto;html=1;strokeColor=#b85450;fillColor=#f8cecc;startArrow=classic;startFill=1;" edge="1" parent="1" source="72epLjfGmpezKTDvvbOs-8">
          <mxGeometry relative="1" as="geometry">
            <mxPoint x="730" y="583" as="targetPoint" />
            <Array as="points">
              <mxPoint x="841" y="583" />
              <mxPoint x="841" y="584" />
            </Array>
          </mxGeometry>
        </mxCell>
        <mxCell id="72epLjfGmpezKTDvvbOs-8" value="" style="image;aspect=fixed;html=1;points=[];align=center;fontSize=12;image=img/lib/azure2/ai_machine_learning/AI_Studio.svg;" vertex="1" parent="1">
          <mxGeometry x="1075.5" y="431" width="64" height="68" as="geometry" />
        </mxCell>
        <mxCell id="72epLjfGmpezKTDvvbOs-15" value="LLM Gateway" style="text;html=1;align=center;verticalAlign=middle;resizable=0;points=[];autosize=1;strokeColor=none;fillColor=none;" vertex="1" parent="1">
          <mxGeometry x="650" y="496" width="100" height="30" as="geometry" />
        </mxCell>
        <mxCell id="72epLjfGmpezKTDvvbOs-17" value="LLM Models -&amp;nbsp; GPT, Claude, Gemini" style="text;html=1;align=center;verticalAlign=middle;resizable=0;points=[];autosize=1;strokeColor=none;fillColor=none;" vertex="1" parent="1">
          <mxGeometry x="1010" y="393" width="220" height="30" as="geometry" />
        </mxCell>
        <mxCell id="72epLjfGmpezKTDvvbOs-20" value="LLM, MCP and &lt;br&gt;Knowledge base Connection" style="text;html=1;align=center;verticalAlign=middle;resizable=0;points=[];autosize=1;strokeColor=none;fillColor=none;" vertex="1" parent="1">
          <mxGeometry x="485" y="527" width="180" height="40" as="geometry" />
        </mxCell>
        <mxCell id="72epLjfGmpezKTDvvbOs-21" value="Access to cloud hosted models" style="text;html=1;align=center;verticalAlign=middle;resizable=0;points=[];autosize=1;strokeColor=none;fillColor=none;" vertex="1" parent="1">
          <mxGeometry x="900" y="583" width="190" height="30" as="geometry" />
        </mxCell>
        <mxCell id="72epLjfGmpezKTDvvbOs-26" value="Chat Interface" style="text;html=1;align=center;verticalAlign=middle;resizable=0;points=[];autosize=1;strokeColor=none;fillColor=none;" vertex="1" parent="1">
          <mxGeometry x="399" y="604" width="100" height="30" as="geometry" />
        </mxCell>
        <mxCell id="72epLjfGmpezKTDvvbOs-34" value="" style="group" vertex="1" connectable="0" parent="1">
          <mxGeometry x="665" y="693" width="174" height="90" as="geometry" />
        </mxCell>
        <mxCell id="72epLjfGmpezKTDvvbOs-11" value="" style="image;aspect=fixed;html=1;points=[];align=center;fontSize=12;image=img/lib/azure2/compute/Container_Instances.svg;" vertex="1" parent="72epLjfGmpezKTDvvbOs-34">
          <mxGeometry y="22" width="64" height="68" as="geometry" />
        </mxCell>
        <mxCell id="72epLjfGmpezKTDvvbOs-16" value="Qualia MCP Server" style="text;html=1;align=center;verticalAlign=middle;resizable=0;points=[];autosize=1;strokeColor=none;fillColor=none;" vertex="1" parent="72epLjfGmpezKTDvvbOs-34">
          <mxGeometry x="44" width="130" height="30" as="geometry" />
        </mxCell>
        <mxCell id="72epLjfGmpezKTDvvbOs-43" style="edgeStyle=orthogonalEdgeStyle;rounded=0;orthogonalLoop=1;jettySize=auto;html=1;entryX=-0.012;entryY=0.613;entryDx=0;entryDy=0;entryPerimeter=0;startArrow=none;startFill=0;" edge="1" parent="1" source="72epLjfGmpezKTDvvbOs-11" target="72epLjfGmpezKTDvvbOs-10">
          <mxGeometry relative="1" as="geometry" />
        </mxCell>
        <mxCell id="72epLjfGmpezKTDvvbOs-53" value="SQL - MCP Connector" style="edgeLabel;html=1;align=center;verticalAlign=middle;resizable=0;points=[];" vertex="1" connectable="0" parent="72epLjfGmpezKTDvvbOs-43">
          <mxGeometry x="-0.1051" y="4" relative="1" as="geometry">
            <mxPoint x="-10" y="16" as="offset" />
          </mxGeometry>
        </mxCell>
        <mxCell id="72epLjfGmpezKTDvvbOs-44" style="edgeStyle=orthogonalEdgeStyle;rounded=0;orthogonalLoop=1;jettySize=auto;html=1;entryX=0.505;entryY=-0.005;entryDx=0;entryDy=0;entryPerimeter=0;" edge="1" parent="1" source="72epLjfGmpezKTDvvbOs-3" target="72epLjfGmpezKTDvvbOs-30">
          <mxGeometry relative="1" as="geometry" />
        </mxCell>
        <mxCell id="72epLjfGmpezKTDvvbOs-46" value="Client Hosted or SAAS Environment" style="text;html=1;align=center;verticalAlign=middle;resizable=0;points=[];autosize=1;strokeColor=none;fillColor=none;" vertex="1" parent="1">
          <mxGeometry x="384" y="431" width="220" height="30" as="geometry" />
        </mxCell>
        <mxCell id="72epLjfGmpezKTDvvbOs-35" value="" style="group" vertex="1" connectable="0" parent="1">
          <mxGeometry x="948.5" y="708" width="100" height="98" as="geometry" />
        </mxCell>
        <mxCell id="72epLjfGmpezKTDvvbOs-10" value="" style="image;aspect=fixed;html=1;points=[];align=center;fontSize=12;image=img/lib/azure2/databases/SQL_Server.svg;" vertex="1" parent="72epLjfGmpezKTDvvbOs-35">
          <mxGeometry x="22" width="68" height="68" as="geometry" />
        </mxCell>
        <mxCell id="72epLjfGmpezKTDvvbOs-25" value="SQL Database" style="text;html=1;align=center;verticalAlign=middle;resizable=0;points=[];autosize=1;strokeColor=none;fillColor=none;" vertex="1" parent="72epLjfGmpezKTDvvbOs-35">
          <mxGeometry y="68" width="100" height="30" as="geometry" />
        </mxCell>
        <mxCell id="72epLjfGmpezKTDvvbOs-36" value="" style="group" vertex="1" connectable="0" parent="1">
          <mxGeometry x="1075.5" y="711" width="110" height="88" as="geometry" />
        </mxCell>
        <mxCell id="72epLjfGmpezKTDvvbOs-30" value="" style="html=1;verticalLabelPosition=bottom;align=center;labelBackgroundColor=#ffffff;verticalAlign=top;strokeWidth=2;strokeColor=#0080F0;shadow=0;dashed=0;shape=mxgraph.ios7.icons.data;" vertex="1" parent="72epLjfGmpezKTDvvbOs-36">
          <mxGeometry x="29" width="52" height="50" as="geometry" />
        </mxCell>
        <mxCell id="72epLjfGmpezKTDvvbOs-32" value="Knowledge base" style="text;html=1;align=center;verticalAlign=middle;resizable=0;points=[];autosize=1;strokeColor=none;fillColor=none;" vertex="1" parent="72epLjfGmpezKTDvvbOs-36">
          <mxGeometry y="58" width="110" height="30" as="geometry" />
        </mxCell>
        <mxCell id="72epLjfGmpezKTDvvbOs-38" value="Client Environment" style="text;html=1;align=center;verticalAlign=middle;resizable=0;points=[];autosize=1;strokeColor=none;fillColor=none;" vertex="1" parent="1">
          <mxGeometry x="925" y="667" width="120" height="30" as="geometry" />
        </mxCell>
        <mxCell id="72epLjfGmpezKTDvvbOs-47" value="Optional Self hosted LLM models" style="sketch=0;outlineConnect=0;fontColor=#232F3E;gradientColor=none;fillColor=#01A88D;strokeColor=none;dashed=0;verticalLabelPosition=bottom;verticalAlign=top;align=center;html=1;fontSize=12;fontStyle=0;aspect=fixed;pointerEvents=1;shape=mxgraph.aws4.sagemaker_model;" vertex="1" parent="1">
          <mxGeometry x="1250" y="704" width="69" height="69" as="geometry" />
        </mxCell>
        <mxCell id="72epLjfGmpezKTDvvbOs-49" value="Cloud Model Providers" style="text;html=1;align=center;verticalAlign=middle;resizable=0;points=[];autosize=1;strokeColor=none;fillColor=none;" vertex="1" parent="1">
          <mxGeometry x="955.5" y="353" width="140" height="30" as="geometry" />
        </mxCell>
        <mxCell id="72epLjfGmpezKTDvvbOs-51" value="&lt;font style=&quot;font-size: 18px;&quot;&gt;Qualia AI Data Transformation - Example Solution&amp;nbsp;&lt;/font&gt;" style="text;html=1;align=center;verticalAlign=middle;resizable=0;points=[];autosize=1;strokeColor=none;fillColor=none;" vertex="1" parent="1">
          <mxGeometry x="260" y="348" width="430" height="40" as="geometry" />
        </mxCell>
      </root>
    </mxGraphModel>
  </diagram>
</mxfile>
